<svg xmlns="http://www.w3.org/2000/svg" viewBox="-1375.5 6584.529 83.363 102.777">
  <defs>
    <style>
      .cls-1 {
        fill: none;
        stroke: #f0503f;
        stroke-linecap: round;
        stroke-linejoin: round;
        stroke-miterlimit: 10;
        stroke-width: 6px;
      }
    </style>
  </defs>
  <path id="Path_1153" data-name="Path 1153" class="cls-1" d="M27.623,61.507c0,.724.145,8.974.145,9.77,0,2.316.289,7.02-8.033,7.6C9.387,79.527,4.827,84.737,4.9,90.961,4.972,94.073,7.36,104.566,24,100.948c0,0,8.105-1.664,9.046-17.007.724-11.651.145-32.493-.217-41.756a5.682,5.682,0,0,1,4.487-5.717l35.605-7.454a2.394,2.394,0,0,1,2.895,2.243L77.63,60.349l.072,2.388s-.072,3.546-2.461,5.283c-2.461,1.737-3.474,1.375-7.671,1.954-11.072,1.52-13.46,7.526-14.184,11S57.439,93.132,68.8,92.046h.362a14.843,14.843,0,0,0,13.1-14.908V10.053A5.1,5.1,0,0,0,76.182,5.06L31.748,14.033a5.343,5.343,0,0,0-4.27,5.211Z" transform="translate(-1377.399 6582.594)"/>
</svg>
