<svg xmlns="http://www.w3.org/2000/svg" viewBox="-668 1928 150 150">
  <defs>
    <style>
      .cls-1 {
        fill: #fd4d3a;
      }

      .cls-2 {
        fill: #fff;
        stroke: #fff;
        stroke-miterlimit: 10;
      }
    </style>
  </defs>
  <g id="Group_828" data-name="Group 828" transform="translate(-1550 -63)">
    <circle id="Ellipse_269" data-name="Ellipse 269" class="cls-1" cx="75" cy="75" r="75" transform="translate(882 1991)"/>
    <path id="Path_1205" data-name="Path 1205" class="cls-2" d="M22.364,55.044c0,.634.211,8.659.211,9.293,0,2.112.211,6.758-7.814,7.392C4.835,72.362.4,77.43.4,83.344c0,2.957,2.323,13.094,18.374,9.715,0,0,7.814-1.69,8.659-16.473.634-11.193.211-31.257-.211-40.338a5.644,5.644,0,0,1,4.224-5.491l34.425-7.181a2.2,2.2,0,0,1,2.746,2.112l1.69,28.089V56.1s0,3.379-2.323,5.069-3.379,1.267-7.392,1.9C49.82,64.547,47.708,70.25,46.863,73.629c-.634,3.379,3.8,11.616,14.784,10.771h.422A14.406,14.406,0,0,0,74.741,70.039V5.413A4.873,4.873,0,0,0,68.828.555L26.377,9.214a5.033,5.033,0,0,0-4.013,5.069Z" transform="translate(916.6 2018.432)"/>
  </g>
</svg>
